<svg width="331" height="331" viewBox="0 0 331 331" fill="none" xmlns="http://www.w3.org/2000/svg">
<rect width="331" height="331" rx="25" fill="#F8F5F1" fill-opacity="0.5"/>
<path d="M74.344 250.196C73.056 250.196 71.8987 249.972 70.872 249.524C69.864 249.057 69.0707 248.423 68.492 247.62C67.9133 246.799 67.6147 245.856 67.596 244.792H70.312C70.4053 245.707 70.7787 246.481 71.432 247.116C72.104 247.732 73.0747 248.04 74.344 248.04C75.5573 248.04 76.5093 247.741 77.2 247.144C77.9093 246.528 78.264 245.744 78.264 244.792C78.264 244.045 78.0587 243.439 77.648 242.972C77.2373 242.505 76.724 242.151 76.108 241.908C75.492 241.665 74.6613 241.404 73.616 241.124C72.328 240.788 71.292 240.452 70.508 240.116C69.7427 239.78 69.08 239.257 68.52 238.548C67.9787 237.82 67.708 236.849 67.708 235.636C67.708 234.572 67.9787 233.629 68.52 232.808C69.0613 231.987 69.8173 231.352 70.788 230.904C71.7773 230.456 72.9067 230.232 74.176 230.232C76.0053 230.232 77.4987 230.689 78.656 231.604C79.832 232.519 80.4947 233.732 80.644 235.244H77.844C77.7507 234.497 77.3587 233.844 76.668 233.284C75.9773 232.705 75.0627 232.416 73.924 232.416C72.86 232.416 71.992 232.696 71.32 233.256C70.648 233.797 70.312 234.563 70.312 235.552C70.312 236.261 70.508 236.84 70.9 237.288C71.3107 237.736 71.8053 238.081 72.384 238.324C72.9813 238.548 73.812 238.809 74.876 239.108C76.164 239.463 77.2 239.817 77.984 240.172C78.768 240.508 79.44 241.04 80 241.768C80.56 242.477 80.84 243.448 80.84 244.68C80.84 245.632 80.588 246.528 80.084 247.368C79.58 248.208 78.8333 248.889 77.844 249.412C76.8547 249.935 75.688 250.196 74.344 250.196ZM98.5896 241.74C98.5896 242.225 98.5616 242.739 98.5056 243.28H86.2416C86.3349 244.792 86.8483 245.977 87.7816 246.836C88.7336 247.676 89.8816 248.096 91.2256 248.096C92.3269 248.096 93.2416 247.844 93.9696 247.34C94.7163 246.817 95.2389 246.127 95.5376 245.268H98.2816C97.8709 246.743 97.0496 247.947 95.8176 248.88C94.5856 249.795 93.0549 250.252 91.2256 250.252C89.7696 250.252 88.4629 249.925 87.3056 249.272C86.1669 248.619 85.2709 247.695 84.6176 246.5C83.9643 245.287 83.6376 243.887 83.6376 242.3C83.6376 240.713 83.9549 239.323 84.5896 238.128C85.2243 236.933 86.1109 236.019 87.2496 235.384C88.4069 234.731 89.7323 234.404 91.2256 234.404C92.6816 234.404 93.9696 234.721 95.0896 235.356C96.2096 235.991 97.0683 236.868 97.6656 237.988C98.2816 239.089 98.5896 240.34 98.5896 241.74ZM95.9576 241.208C95.9576 240.237 95.7429 239.407 95.3136 238.716C94.8843 238.007 94.2963 237.475 93.5496 237.12C92.8216 236.747 92.0096 236.56 91.1136 236.56C89.8256 236.56 88.7243 236.971 87.8096 237.792C86.9136 238.613 86.4003 239.752 86.2696 241.208H95.9576ZM104.501 229.28V250H101.953V229.28H104.501ZM122.844 241.74C122.844 242.225 122.816 242.739 122.76 243.28H110.496C110.589 244.792 111.102 245.977 112.036 246.836C112.988 247.676 114.136 248.096 115.48 248.096C116.581 248.096 117.496 247.844 118.224 247.34C118.97 246.817 119.493 246.127 119.792 245.268H122.536C122.125 246.743 121.304 247.947 120.072 248.88C118.84 249.795 117.309 250.252 115.48 250.252C114.024 250.252 112.717 249.925 111.56 249.272C110.421 248.619 109.525 247.695 108.872 246.5C108.218 245.287 107.892 243.887 107.892 242.3C107.892 240.713 108.209 239.323 108.844 238.128C109.478 236.933 110.365 236.019 111.504 235.384C112.661 234.731 113.986 234.404 115.48 234.404C116.936 234.404 118.224 234.721 119.344 235.356C120.464 235.991 121.322 236.868 121.92 237.988C122.536 239.089 122.844 240.34 122.844 241.74ZM120.212 241.208C120.212 240.237 119.997 239.407 119.568 238.716C119.138 238.007 118.55 237.475 117.804 237.12C117.076 236.747 116.264 236.56 115.368 236.56C114.08 236.56 112.978 236.971 112.064 237.792C111.168 238.613 110.654 239.752 110.524 241.208H120.212ZM133.683 234.376C135.549 234.376 137.061 234.945 138.219 236.084C139.376 237.204 139.955 238.828 139.955 240.956V250H137.435V241.32C137.435 239.789 137.052 238.623 136.287 237.82C135.521 236.999 134.476 236.588 133.151 236.588C131.807 236.588 130.733 237.008 129.931 237.848C129.147 238.688 128.755 239.911 128.755 241.516V250H126.207V234.656H128.755V236.84C129.259 236.056 129.94 235.449 130.799 235.02C131.676 234.591 132.637 234.376 133.683 234.376ZM150.445 234.404C151.77 234.404 152.928 234.693 153.917 235.272C154.925 235.851 155.672 236.579 156.157 237.456V234.656H158.733V250.336C158.733 251.736 158.434 252.977 157.837 254.06C157.24 255.161 156.381 256.02 155.261 256.636C154.16 257.252 152.872 257.56 151.397 257.56C149.381 257.56 147.701 257.084 146.357 256.132C145.013 255.18 144.22 253.883 143.977 252.24H146.497C146.777 253.173 147.356 253.92 148.233 254.48C149.11 255.059 150.165 255.348 151.397 255.348C152.797 255.348 153.936 254.909 154.813 254.032C155.709 253.155 156.157 251.923 156.157 250.336V247.116C155.653 248.012 154.906 248.759 153.917 249.356C152.928 249.953 151.77 250.252 150.445 250.252C149.082 250.252 147.841 249.916 146.721 249.244C145.62 248.572 144.752 247.629 144.117 246.416C143.482 245.203 143.165 243.821 143.165 242.272C143.165 240.704 143.482 239.332 144.117 238.156C144.752 236.961 145.62 236.037 146.721 235.384C147.841 234.731 149.082 234.404 150.445 234.404ZM156.157 242.3C156.157 241.143 155.924 240.135 155.457 239.276C154.99 238.417 154.356 237.764 153.553 237.316C152.769 236.849 151.901 236.616 150.949 236.616C149.997 236.616 149.129 236.84 148.345 237.288C147.561 237.736 146.936 238.389 146.469 239.248C146.002 240.107 145.769 241.115 145.769 242.272C145.769 243.448 146.002 244.475 146.469 245.352C146.936 246.211 147.561 246.873 148.345 247.34C149.129 247.788 149.997 248.012 150.949 248.012C151.901 248.012 152.769 247.788 153.553 247.34C154.356 246.873 154.99 246.211 155.457 245.352C155.924 244.475 156.157 243.457 156.157 242.3ZM171.607 250L165.587 243.224V250H163.039V229.28H165.587V241.46L171.495 234.656H175.051L167.827 242.3L175.079 250H171.607ZM176.497 242.272C176.497 240.704 176.814 239.332 177.449 238.156C178.084 236.961 178.952 236.037 180.053 235.384C181.173 234.731 182.414 234.404 183.777 234.404C185.121 234.404 186.288 234.693 187.277 235.272C188.266 235.851 189.004 236.579 189.489 237.456V234.656H192.065V250H189.489V247.144C188.985 248.04 188.229 248.787 187.221 249.384C186.232 249.963 185.074 250.252 183.749 250.252C182.386 250.252 181.154 249.916 180.053 249.244C178.952 248.572 178.084 247.629 177.449 246.416C176.814 245.203 176.497 243.821 176.497 242.272ZM189.489 242.3C189.489 241.143 189.256 240.135 188.789 239.276C188.322 238.417 187.688 237.764 186.885 237.316C186.101 236.849 185.233 236.616 184.281 236.616C183.329 236.616 182.461 236.84 181.677 237.288C180.893 237.736 180.268 238.389 179.801 239.248C179.334 240.107 179.101 241.115 179.101 242.272C179.101 243.448 179.334 244.475 179.801 245.352C180.268 246.211 180.893 246.873 181.677 247.34C182.461 247.788 183.329 248.012 184.281 248.012C185.233 248.012 186.101 247.788 186.885 247.34C187.688 246.873 188.322 246.211 188.789 245.352C189.256 244.475 189.489 243.457 189.489 242.3ZM198.919 237.484C199.423 236.607 200.17 235.879 201.159 235.3C202.167 234.703 203.334 234.404 204.659 234.404C206.022 234.404 207.254 234.731 208.355 235.384C209.475 236.037 210.352 236.961 210.987 238.156C211.622 239.332 211.939 240.704 211.939 242.272C211.939 243.821 211.622 245.203 210.987 246.416C210.352 247.629 209.475 248.572 208.355 249.244C207.254 249.916 206.022 250.252 204.659 250.252C203.352 250.252 202.195 249.963 201.187 249.384C200.198 248.787 199.442 248.049 198.919 247.172V257.28H196.371V234.656H198.919V237.484ZM209.335 242.272C209.335 241.115 209.102 240.107 208.635 239.248C208.168 238.389 207.534 237.736 206.731 237.288C205.947 236.84 205.079 236.616 204.127 236.616C203.194 236.616 202.326 236.849 201.523 237.316C200.739 237.764 200.104 238.427 199.619 239.304C199.152 240.163 198.919 241.161 198.919 242.3C198.919 243.457 199.152 244.475 199.619 245.352C200.104 246.211 200.739 246.873 201.523 247.34C202.326 247.788 203.194 248.012 204.127 248.012C205.079 248.012 205.947 247.788 206.731 247.34C207.534 246.873 208.168 246.211 208.635 245.352C209.102 244.475 209.335 243.448 209.335 242.272ZM222.769 234.376C224.635 234.376 226.147 234.945 227.305 236.084C228.462 237.204 229.041 238.828 229.041 240.956V250H226.521V241.32C226.521 239.789 226.138 238.623 225.373 237.82C224.607 236.999 223.562 236.588 222.237 236.588C220.893 236.588 219.819 237.008 219.017 237.848C218.233 238.688 217.841 239.911 217.841 241.516V250H215.293V234.656H217.841V236.84C218.345 236.056 219.026 235.449 219.885 235.02C220.762 234.591 221.723 234.376 222.769 234.376ZM246.419 234.656L237.179 257.224H234.547L237.571 249.832L231.383 234.656H234.211L239.027 247.088L243.787 234.656H246.419ZM248.028 242.272C248.028 240.704 248.346 239.332 248.98 238.156C249.615 236.961 250.483 236.037 251.584 235.384C252.704 234.731 253.946 234.404 255.308 234.404C256.652 234.404 257.819 234.693 258.808 235.272C259.798 235.851 260.535 236.579 261.02 237.456V234.656H263.596V250H261.02V247.144C260.516 248.04 259.76 248.787 258.752 249.384C257.763 249.963 256.606 250.252 255.28 250.252C253.918 250.252 252.686 249.916 251.584 249.244C250.483 248.572 249.615 247.629 248.98 246.416C248.346 245.203 248.028 243.821 248.028 242.272ZM261.02 242.3C261.02 241.143 260.787 240.135 260.32 239.276C259.854 238.417 259.219 237.764 258.416 237.316C257.632 236.849 256.764 236.616 255.812 236.616C254.86 236.616 253.992 236.84 253.208 237.288C252.424 237.736 251.799 238.389 251.332 239.248C250.866 240.107 250.632 241.115 250.632 242.272C250.632 243.448 250.866 244.475 251.332 245.352C251.799 246.211 252.424 246.873 253.208 247.34C253.992 247.788 254.86 248.012 255.812 248.012C256.764 248.012 257.632 247.788 258.416 247.34C259.219 246.873 259.854 246.211 260.32 245.352C260.787 244.475 261.02 243.457 261.02 242.3Z" fill="black"/>
<circle cx="165" cy="133" r="77" fill="#FFC2B4"/>
<path fill-rule="evenodd" clip-rule="evenodd" d="M123.833 123.667H144.667V102.833H123.833V123.667ZM155.083 186.167H175.917V165.333H155.083V186.167ZM144.667 186.167H123.833V165.333H144.667V186.167ZM123.833 154.917H144.667V134.083H123.833V154.917ZM175.917 154.917H155.083V134.083H175.917V154.917ZM186.333 102.833V123.667H207.167V102.833H186.333ZM175.917 123.667H155.083V102.833H175.917V123.667ZM186.333 154.917H207.167V134.083H186.333V154.917ZM207.167 186.167H186.333V165.333H207.167V186.167Z" fill="#194350"/>
</svg>
